<svg xmlns="http://www.w3.org/2000/svg" width="805" height="600"><rect width="805" height="600" x="0" y="0" fill="#FFFFFF" id="backgorund"/><g transform="translate(10,10)" id="visualization"><g><rect x="0" y="12.500000000000057" height="6.119174942704348" width="5" fill="black"><title>0: 18</title></rect><rect x="520" y="0" height="279.7822765469824" width="5" fill="black"><title>: 823</title></rect><rect x="260" y="62.5" height="109.80519480519482" width="5" fill="black"><title>1: 323</title></rect><rect x="520" y="284.7822765469824" height="1.699770817417857" width="5" fill="black"><title>1: 5</title></rect><rect x="260" y="177.30519480519482" height="94.16730328495035" width="5" fill="black"><title>2: 277</title></rect><rect x="520" y="291.4820473644003" height="9.858670741023673" width="5" fill="black"><title>10: 29</title></rect><rect x="520" y="306.34071810542395" height="8.498854087089398" width="5" fill="black"><title>11: 25</title></rect><rect x="520" y="319.83957219251334" height="4.419404125286462" width="5" fill="black"><title>2: 13</title></rect><rect x="260" y="276.47249809014517" height="241.02750190985483" width="5" fill="black"><title>3: 709</title></rect><rect x="520" y="329.2589763177998" height="6.459129106187902" width="5" fill="black"><title>12: 19</title></rect><rect x="520" y="340.7181054239877" height="13.258212375859443" width="5" fill="black"><title>13: 39</title></rect><rect x="520" y="358.97631779984715" height="11.218487394958004" width="5" fill="black"><title>14: 33</title></rect><rect x="520" y="375.19480519480516" height="12.578304048892335" width="5" fill="black"><title>15: 37</title></rect><rect x="520" y="392.7731092436975" height="7.818945760122233" width="5" fill="black"><title>16: 23</title></rect><rect x="520" y="405.5920550038197" height="8.838808250572981" width="5" fill="black"><title>3: 26</title></rect><rect x="520" y="419.4308632543927" height="10.538579067990838" width="5" fill="black"><title>4: 31</title></rect><rect x="520" y="434.96944232238354" height="9.178762414056507" width="5" fill="black"><title>5: 27</title></rect><rect x="520" y="449.14820473644005" height="6.799083269671485" width="5" fill="black"><title>6: 20</title></rect><rect x="520" y="460.94728800611153" height="7.818945760122233" width="5" fill="black"><title>7: 23</title></rect><rect x="520" y="473.76623376623377" height="7.818945760122233" width="5" fill="black"><title>8: 23</title></rect><rect x="520" y="486.585179526356" height="8.498854087089398" width="5" fill="black"><title>9: 25</title></rect><rect x="0" y="23.619174942704404" height="198.5332314744079" width="5" fill="black"><title>10: 584</title></rect><rect x="0" y="227.1524064171123" height="46.233766233766204" width="5" fill="black"><title>20: 136</title></rect><rect x="0" y="278.3861726508785" height="64.93124522536289" width="5" fill="black"><title>30: 191</title></rect><rect x="0" y="348.3174178762414" height="13.598166539343026" width="5" fill="black"><title>40: 40</title></rect><rect x="0" y="366.9155844155844" height="14.278074866310192" width="5" fill="black"><title>50: 42</title></rect><rect x="0" y="386.1936592818946" height="12.91825821237586" width="5" fill="black"><title>60: 38</title></rect><rect x="0" y="404.1119174942705" height="10.538579067990838" width="5" fill="black"><title>70: 31</title></rect><rect x="0" y="419.6504965622613" height="15.297937356760883" width="5" fill="black"><title>80: 45</title></rect><rect x="0" y="439.9484339190222" height="5.4392666157372105" width="5" fill="black"><title>90: 16</title></rect><rect x="0" y="450.3877005347594" height="4.419404125286462" width="5" fill="black"><title>110: 13</title></rect><rect x="0" y="459.80710466004587" height="1.3598166539342742" width="5" fill="black"><title>120: 4</title></rect><rect x="0" y="466.16692131398014" height="2.3796791443850225" width="5" fill="black"><title>130: 7</title></rect><rect x="0" y="473.54660045836516" height="2.0397249809014397" width="5" fill="black"><title>140: 6</title></rect><rect x="0" y="480.5863254392666" height="4.079449961802879" width="5" fill="black"><title>150: 12</title></rect><rect x="0" y="489.6657754010695" height="1.359816653934331" width="5" fill="black"><title>160: 4</title></rect><rect x="0" y="496.0255920550038" height="3.059587471352188" width="5" fill="black"><title>210: 9</title></rect><rect x="0" y="504.085179526356" height="1.359816653934331" width="5" fill="black"><title>220: 4</title></rect><rect x="0" y="510.44499618029033" height="1.6997708174179706" width="5" fill="black"><title>230: 5</title></rect><rect x="0" y="517.1447669977083" height="1.0198624904508051" width="5" fill="black"><title>250: 3</title></rect><rect x="0" y="523.1646294881591" height="4.419404125286519" width="5" fill="black"><title>260: 13</title></rect><rect x="0" y="532.5840336134456" height="1.359816653934331" width="5" fill="black"><title>510: 4</title></rect><rect x="0" y="538.94385026738" height="28.55614973262027" width="5" fill="black"><title>null: 84</title></rect><rect x="520" y="500.0840336134454" height="0.6799083269671655" width="5" fill="black"><title>13 15: 2</title></rect><rect x="520" y="505.76394194041256" height="0.3399541634835259" width="5" fill="black"><title>13 15 B: 1</title></rect><rect x="520" y="511.1038961038961" height="0.3399541634835259" width="5" fill="black"><title>15 16: 1</title></rect><rect x="520" y="516.4438502673796" height="0.6799083269671655" width="5" fill="black"><title>5 7: 2</title></rect><rect x="520" y="522.1237585943468" height="0.3399541634835259" width="5" fill="black"><title>5 9: 1</title></rect><rect x="520" y="527.4637127578303" height="0.3399541634835259" width="5" fill="black"><title>8 10: 1</title></rect><rect x="520" y="532.8036669213138" height="3.7394957983193535" width="5" fill="black"><title>A: 11</title></rect><rect x="520" y="541.5431627196332" height="3.059587471352188" width="5" fill="black"><title>B: 9</title></rect><rect x="520" y="549.6027501909854" height="12.918258212375918" width="5" fill="black"><title>C: 38</title></rect><rect x="520" y="567.5210084033613" height="0.6799083269671655" width="5" fill="black"><title>C D: 2</title></rect><rect x="520" y="573.2009167303285" height="6.7990832696715415" width="5" fill="black"><title>D: 20</title></rect><rect x="780" y="65.00000000000003" height="275.02291825821237" width="5" fill="black"><title>no: 809</title></rect><rect x="780" y="345.02291825821237" height="169.97708174178763" width="5" fill="black"><title>yes: 500</title></rect></g><g fill="none" stroke-opacity="1"><g style="mix-blend-mode: multiply;"><path d="M5,497.5553857906799C132.5,497.5553857906799,132.5,160.91673032849505,260,160.91673032849505" stroke="#cccccc" stroke-width="3.0595874713521773"/><title>210 → 1: 9</title></g><g style="mix-blend-mode: multiply;"><path d="M5,482.62605042016804C132.5,482.62605042016804,132.5,155.98739495798318,260,155.98739495798318" stroke="#cccccc" stroke-width="4.079449961802903"/><title>150 → 1: 12</title></g><g style="mix-blend-mode: multiply;"><path d="M5,292.4942704354469C132.5,292.4942704354469,132.5,79.32773109243696,260,79.32773109243696" stroke="#cccccc" stroke-width="28.216195569136747"/><title>30 → 1: 83</title></g><g style="mix-blend-mode: multiply;"><path d="M5,427.2994652406418C132.5,427.2994652406418,132.5,130.66080977845684,260,130.66080977845684" stroke="#cccccc" stroke-width="15.297937356760887"/><title>80 → 1: 45</title></g><g style="mix-blend-mode: multiply;"><path d="M5,13.68983957219257C132.5,13.68983957219257,132.5,63.68983957219251,260,63.68983957219251" stroke="#cccccc" stroke-width="2.379679144385027"/><title>0 → 1: 7</title></g><g style="mix-blend-mode: multiply;"><path d="M5,372.6948051948052C132.5,372.6948051948052,132.5,104.31436210847974,260,104.31436210847974" stroke="#cccccc" stroke-width="11.55844155844156"/><title>50 → 1: 34</title></g><g style="mix-blend-mode: multiply;"><path d="M5,511.29488158899926C132.5,511.29488158899926,132.5,164.65622612681437,260,164.65622612681437" stroke="#cccccc" stroke-width="1.6997708174178763"/><title>230 → 1: 5</title></g><g style="mix-blend-mode: multiply;"><path d="M5,405.47173414820475C132.5,405.47173414820475,132.5,121.65202444614208,260,121.65202444614208" stroke="#cccccc" stroke-width="2.719633307868602"/><title>70 → 1: 8</title></g><g style="mix-blend-mode: multiply;"><path d="M5,517.6546982429337C132.5,517.6546982429337,132.5,166.0160427807487,260,166.0160427807487" stroke="#cccccc" stroke-width="1.0198624904507259"/><title>250 → 1: 3</title></g><g style="mix-blend-mode: multiply;"><path d="M5,504.76508785332317C132.5,504.76508785332317,132.5,163.12643239113828,260,163.12643239113828" stroke="#cccccc" stroke-width="1.359816653934301"/><title>220 → 1: 4</title></g><g style="mix-blend-mode: multiply;"><path d="M5,442.6680672268908C132.5,442.6680672268908,132.5,141.02941176470588,260,141.02941176470588" stroke="#cccccc" stroke-width="5.439266615737204"/><title>90 → 1: 16</title></g><g style="mix-blend-mode: multiply;"><path d="M5,474.5664629488159C132.5,474.5664629488159,132.5,152.92780748663102,260,152.92780748663102" stroke="#cccccc" stroke-width="2.0397249809014517"/><title>140 → 1: 6</title></g><g style="mix-blend-mode: multiply;"><path d="M5,350.86707410236824C132.5,350.86707410236824,132.5,95.98548510313215,260,95.98548510313215" stroke="#cccccc" stroke-width="5.099312452253629"/><title>40 → 1: 15</title></g><g style="mix-blend-mode: multiply;"><path d="M5,490.34568372803665C132.5,490.34568372803665,132.5,158.7070282658518,260,158.7070282658518" stroke="#cccccc" stroke-width="1.359816653934301"/><title>160 → 1: 4</title></g><g style="mix-blend-mode: multiply;"><path d="M5,525.3743315508024C132.5,525.3743315508024,132.5,168.73567608861728,260,168.73567608861728" stroke="#cccccc" stroke-width="4.419404125286478"/><title>260 → 1: 13</title></g><g style="mix-blend-mode: multiply;"><path d="M5,391.29297173414824C132.5,391.29297173414824,132.5,115.19289533995415,260,115.19289533995415" stroke="#cccccc" stroke-width="10.198624904507257"/><title>60 → 1: 30</title></g><g style="mix-blend-mode: multiply;"><path d="M5,467.35676088617265C132.5,467.35676088617265,132.5,150.7181054239878,260,150.7181054239878" stroke="#cccccc" stroke-width="2.379679144385027"/><title>130 → 1: 7</title></g><g style="mix-blend-mode: multiply;"><path d="M5,533.2639419404128C132.5,533.2639419404128,132.5,171.62528647822768,260,171.62528647822768" stroke="#cccccc" stroke-width="1.359816653934301"/><title>510 → 1: 4</title></g><g style="mix-blend-mode: multiply;"><path d="M5,23.789152024446192C132.5,23.789152024446192,132.5,65.04965622612681,260,65.04965622612681" stroke="#f8e71c" stroke-width="1"/><title>10 → 1: 1</title></g><g style="mix-blend-mode: multiply;"><path d="M5,460.48701298701303C132.5,460.48701298701303,132.5,148.84835752482812,260,148.84835752482812" stroke="#cccccc" stroke-width="1.359816653934301"/><title>120 → 1: 4</title></g><g style="mix-blend-mode: multiply;"><path d="M5,452.59740259740266C132.5,452.59740259740266,132.5,145.95874713521772,260,145.95874713521772" stroke="#cccccc" stroke-width="4.419404125286478"/><title>110 → 1: 13</title></g><g style="mix-blend-mode: multiply;"><path d="M5,233.78151260504202C132.5,233.78151260504202,132.5,230.16806722689077,260,230.16806722689077" stroke="#cccccc" stroke-width="13.258212375859435"/><title>20 → 2: 39</title></g><g style="mix-blend-mode: multiply;"><path d="M5,46.05614973262037C132.5,46.05614973262037,132.5,201.44194041252865,260,201.44194041252865" stroke="#f8e71c" stroke-width="44.194041252864785"/><title>10 → 2: 130</title></g><g style="mix-blend-mode: multiply;"><path d="M5,318.84071810542395C132.5,318.84071810542395,132.5,249.03552330022922,260,249.03552330022922" stroke="#cccccc" stroke-width="24.47669977081742"/><title>30 → 2: 72</title></g><g style="mix-blend-mode: multiply;"><path d="M5,356.4763177998472C132.5,356.4763177998472,132.5,264.3334606569901,260,264.3334606569901" stroke="#cccccc" stroke-width="6.119174942704355"/><title>40 → 2: 18</title></g><g style="mix-blend-mode: multiply;"><path d="M5,15.899541634835808C132.5,15.899541634835808,132.5,178.32505729564554,260,178.32505729564554" stroke="#cccccc" stroke-width="2.0397249809014517"/><title>0 → 2: 6</title></g><g style="mix-blend-mode: multiply;"><path d="M5,408.8712757830405C132.5,408.8712757830405,132.5,269.4327731092437,260,269.4327731092437" stroke="#cccccc" stroke-width="4.079449961802903"/><title>70 → 2: 12</title></g><g style="mix-blend-mode: multiply;"><path d="M5,145.15278838808257C132.5,145.15278838808257,132.5,355.17188693659284,260,355.17188693659284" stroke="#f8e71c" stroke-width="153.9992360580596"/><title>10 → 3: 453</title></g><g style="mix-blend-mode: multiply;"><path d="M5,256.89839572192517C132.5,256.89839572192517,132.5,448.659281894576,260,448.659281894576" stroke="#cccccc" stroke-width="32.9755538579068"/><title>20 → 3: 97</title></g><g style="mix-blend-mode: multiply;"><path d="M5,337.198242933537C132.5,337.198242933537,132.5,471.26623376623377,260,471.26623376623377" stroke="#cccccc" stroke-width="12.23834988540871"/><title>30 → 3: 36</title></g><g style="mix-blend-mode: multiply;"><path d="M5,17.769289533995472C132.5,17.769289533995472,132.5,277.3223834988541,260,277.3223834988541" stroke="#cccccc" stroke-width="1.6997708174178763"/><title>0 → 3: 5</title></g><g style="mix-blend-mode: multiply;"><path d="M5,397.75210084033614C132.5,397.75210084033614,132.5,483.844537815126,260,483.844537815126" stroke="#cccccc" stroke-width="2.719633307868602"/><title>60 → 3: 8</title></g><g style="mix-blend-mode: multiply;"><path d="M5,379.8338426279603C132.5,379.8338426279603,132.5,481.1249045072574,260,481.1249045072574" stroke="#cccccc" stroke-width="2.719633307868602"/><title>50 → 3: 8</title></g><g style="mix-blend-mode: multiply;"><path d="M5,360.7257448433919C132.5,360.7257448433919,132.5,478.5752482811306,260,478.5752482811306" stroke="#cccccc" stroke-width="2.379679144385027"/><title>40 → 3: 7</title></g><g style="mix-blend-mode: multiply;"><path d="M5,412.78074866310163C132.5,412.78074866310163,132.5,487.07410236822,260,487.07410236822" stroke="#cccccc" stroke-width="3.7394957983193278"/><title>70 → 3: 11</title></g><g style="mix-blend-mode: multiply;"><path d="M5,553.2219251336901C132.5,553.2219251336901,132.5,503.2219251336898,260,503.2219251336898" stroke="#cccccc" stroke-width="28.556149732620323"/><title>null → 3: 84</title></g><g style="mix-blend-mode: multiply;"><path d="M265,111.62337662337663C392.5,111.62337662337663,392.5,321.02941176470586,520,321.02941176470586" stroke="#cccccc" stroke-width="2.379679144385027"/><title>1 → 2: 7</title></g><g style="mix-blend-mode: multiply;"><path d="M265,109.41367456073338C392.5,109.41367456073338,392.5,307.3605805958747,520,307.3605805958747" stroke="#cccccc" stroke-width="2.0397249809014517"/><title>1 → 11: 6</title></g><g style="mix-blend-mode: multiply;"><path d="M265,83.2372039724981C392.5,83.2372039724981,392.5,20.73720397249809,520,20.73720397249809" stroke="#cccccc" stroke-width="41.47440794499618"/><title>1 → : 122</title></g><g style="mix-blend-mode: multiply;"><path d="M265,119.61229946524062C392.5,119.61229946524062,392.5,410.0114591291062,520,410.0114591291062" stroke="#cccccc" stroke-width="8.838808250572956"/><title>1 → 3: 26</title></g><g style="mix-blend-mode: multiply;"><path d="M265,107.03399541634836C392.5,107.03399541634836,392.5,292.84186401833455,520,292.84186401833455" stroke="#cccccc" stroke-width="2.719633307868602"/><title>1 → 10: 8</title></g><g style="mix-blend-mode: multiply;"><path d="M265,170.77540106951867C392.5,170.77540106951867,392.5,574.7307104660046,520,574.7307104660046" stroke="#cccccc" stroke-width="3.0595874713521773"/><title>1 → D: 9</title></g><g style="mix-blend-mode: multiply;"><path d="M265,128.11115355233C392.5,128.11115355233,392.5,423.5103132161956,520,423.5103132161956" stroke="#cccccc" stroke-width="8.158899923605807"/><title>1 → 4: 24</title></g><g style="mix-blend-mode: multiply;"><path d="M265,164.14629488158897C392.5,164.14629488158897,392.5,487.60504201680675,520,487.60504201680675" stroke="#cccccc" stroke-width="2.0397249809014517"/><title>1 → 9: 6</title></g><g style="mix-blend-mode: multiply;"><path d="M265,144.5989304812834C392.5,144.5989304812834,392.5,452.377769289534,520,452.377769289534" stroke="#cccccc" stroke-width="6.45912910618793"/><title>1 → 6: 19</title></g><g style="mix-blend-mode: multiply;"><path d="M265,168.0557677616501C392.5,168.0557677616501,392.5,542.0530939648586,520,542.0530939648586" stroke="#cccccc" stroke-width="1.0198624904507259"/><title>1 → B: 3</title></g><g style="mix-blend-mode: multiply;"><path d="M265,159.21695951107714C392.5,159.21695951107714,392.5,477.6757066462949,520,477.6757066462949" stroke="#cccccc" stroke-width="7.818945760122231"/><title>1 → 8: 23</title></g><g style="mix-blend-mode: multiply;"><path d="M265,167.03590527119937C392.5,167.03590527119937,392.5,533.3135981665392,520,533.3135981665392" stroke="#cccccc" stroke-width="1.0198624904507259"/><title>1 → A: 3</title></g><g style="mix-blend-mode: multiply;"><path d="M265,136.77998472116116C392.5,136.77998472116116,392.5,439.5588235294118,520,439.5588235294118" stroke="#cccccc" stroke-width="9.178762414056532"/><title>1 → 5: 27</title></g><g style="mix-blend-mode: multiply;"><path d="M265,151.5679908326967C392.5,151.5679908326967,392.5,464.6867838044309,520,464.6867838044309" stroke="#cccccc" stroke-width="7.4789915966386555"/><title>1 → 7: 22</title></g><g style="mix-blend-mode: multiply;"><path d="M265,168.90565317035902C392.5,168.90565317035902,392.5,549.9427043544689,520,549.9427043544689" stroke="#cccccc" stroke-width="1"/><title>1 → C: 2</title></g><g style="mix-blend-mode: multiply;"><path d="M265,114.00305576776165C392.5,114.00305576776165,392.5,359.8262032085561,520,359.8262032085561" stroke="#cccccc" stroke-width="1.6997708174178763"/><title>1 → 14: 5</title></g><g style="mix-blend-mode: multiply;"><path d="M265,166.01604278074862C392.5,166.01604278074862,392.5,522.2937356760885,520,522.2937356760885" stroke="#cccccc" stroke-width="1"/><title>1 → 5 9: 1</title></g><g style="mix-blend-mode: multiply;"><path d="M265,112.98319327731093C392.5,112.98319327731093,392.5,340.88808250572947,520,340.88808250572947" stroke="#cccccc" stroke-width="1"/><title>1 → 13: 1</title></g><g style="mix-blend-mode: multiply;"><path d="M265,104.82429335370513C392.5,104.82429335370513,392.5,285.63216195569134,520,285.63216195569134" stroke="#cccccc" stroke-width="1.6997708174178763"/><title>1 → 1: 5</title></g><g style="mix-blend-mode: multiply;"><path d="M265,115.02291825821237C392.5,115.02291825821237,392.5,375.3647822765469,520,375.3647822765469" stroke="#cccccc" stroke-width="1"/><title>1 → 15: 1</title></g><g style="mix-blend-mode: multiply;"><path d="M265,165.50611153552327C392.5,165.50611153552327,392.5,516.7838044308631,520,516.7838044308631" stroke="#cccccc" stroke-width="1"/><title>1 → 5 7: 2</title></g><g style="mix-blend-mode: multiply;"><path d="M265,166.3559969442322C392.5,166.3559969442322,392.5,527.6336898395721,520,527.6336898395721" stroke="#cccccc" stroke-width="1"/><title>1 → 8 10: 1</title></g><g style="mix-blend-mode: multiply;"><path d="M265,205.35141329258977C392.5,205.35141329258977,392.5,69.52062643239114,520,69.52062643239114" stroke="#cccccc" stroke-width="56.09243697478992"/><title>2 → : 165</title></g><g style="mix-blend-mode: multiply;"><path d="M265,235.94728800611156C392.5,235.94728800611156,392.5,296.7513368983957,520,296.7513368983957" stroke="#cccccc" stroke-width="5.099312452253629"/><title>2 → 10: 15</title></g><g style="mix-blend-mode: multiply;"><path d="M265,240.8766233766234C392.5,240.8766233766234,392.5,310.7601222307104,520,310.7601222307104" stroke="#cccccc" stroke-width="4.759358288770054"/><title>2 → 11: 14</title></g><g style="mix-blend-mode: multiply;"><path d="M265,251.07524828113065C392.5,251.07524828113065,392.5,343.09778456837273,520,343.09778456837273" stroke="#cccccc" stroke-width="4.079449961802903"/><title>2 → 13: 12</title></g><g style="mix-blend-mode: multiply;"><path d="M265,246.14591291061882C392.5,246.14591291061882,392.5,332.1485867074102,520,332.1485867074102" stroke="#cccccc" stroke-width="5.77922077922078"/><title>2 → 12: 17</title></g><g style="mix-blend-mode: multiply;"><path d="M265,257.0244461420932C392.5,257.0244461420932,392.5,364.5855614973261,520,364.5855614973261" stroke="#cccccc" stroke-width="7.818945760122231"/><title>2 → 14: 23</title></g><g style="mix-blend-mode: multiply;"><path d="M265,267.73300229182587C392.5,267.73300229182587,392.5,491.34453781512605,520,491.34453781512605" stroke="#cccccc" stroke-width="5.439266615737204"/><title>2 → 9: 16</title></g><g style="mix-blend-mode: multiply;"><path d="M265,261.78380443086326C392.5,261.78380443086326,392.5,393.28304048892284,520,393.28304048892284" stroke="#cccccc" stroke-width="1.0198624904507259"/><title>2 → 16: 3</title></g><g style="mix-blend-mode: multiply;"><path d="M265,263.48357524828117C392.5,263.48357524828117,392.5,428.77960275019103,520,428.77960275019103" stroke="#cccccc" stroke-width="2.379679144385027"/><title>2 → 4: 7</title></g><g style="mix-blend-mode: multiply;"><path d="M265,261.1038961038961C392.5,261.1038961038961,392.5,375.7047364400305,520,375.7047364400305" stroke="#cccccc" stroke-width="1"/><title>2 → 15: 1</title></g><g style="mix-blend-mode: multiply;"><path d="M265,270.62261268143624C392.5,270.62261268143624,392.5,542.7330022918256,520,542.7330022918256" stroke="#cccccc" stroke-width="1"/><title>2 → B: 1</title></g><g style="mix-blend-mode: multiply;"><path d="M265,271.13254392666164C392.5,271.13254392666164,392.5,576.6004583651642,520,576.6004583651642" stroke="#cccccc" stroke-width="1"/><title>2 → D: 2</title></g><g style="mix-blend-mode: multiply;"><path d="M265,264.84339190221544C392.5,264.84339190221544,392.5,468.59625668449195,520,468.59625668449195" stroke="#cccccc" stroke-width="1"/><title>2 → 7: 1</title></g><g style="mix-blend-mode: multiply;"><path d="M265,367.58021390374336C392.5,367.58021390374336,392.5,188.67456073338428,520,188.67456073338428" stroke="#f8e71c" stroke-width="182.21543162719635"/><title>3 → : 536</title></g><g style="mix-blend-mode: multiply;"><path d="M265,498.46256684491976C392.5,498.46256684491976,392.5,535.1833460656989,520,535.1833460656989" stroke="#f8e71c" stroke-width="2.719633307868602"/><title>3 → A: 8</title></g><g style="mix-blend-mode: multiply;"><path d="M265,490.9835752482811C392.5,490.9835752482811,392.5,397.192513368984,520,397.192513368984" stroke="#f8e71c" stroke-width="6.799083269671505"/><title>3 → 16: 20</title></g><g style="mix-blend-mode: multiply;"><path d="M265,481.6348357524828C392.5,481.6348357524828,392.5,381.8239113827349,520,381.8239113827349" stroke="#f8e71c" stroke-width="11.898395721925134"/><title>3 → 15: 35</title></g><g style="mix-blend-mode: multiply;"><path d="M265,507.6413292589763C392.5,507.6413292589763,392.5,556.4018334606569,520,556.4018334606569" stroke="#f8e71c" stroke-width="12.23834988540871"/><title>3 → C: 36</title></g><g style="mix-blend-mode: multiply;"><path d="M265,461.57754010695186C392.5,461.57754010695186,392.5,313.98968678380436,520,313.98968678380436" stroke="#f8e71c" stroke-width="1.6997708174178763"/><title>3 → 11: 5</title></g><g style="mix-blend-mode: multiply;"><path d="M265,469.56646294881585C392.5,469.56646294881585,392.5,349.55691367456063,520,349.55691367456063" stroke="#f8e71c" stroke-width="8.838808250572956"/><title>3 → 13: 26</title></g><g style="mix-blend-mode: multiply;"><path d="M265,515.9702062643239C392.5,515.9702062643239,392.5,578.4702062643239,520,578.4702062643239" stroke="#f8e71c" stroke-width="3.0595874713521773"/><title>3 → D: 9</title></g><g style="mix-blend-mode: multiply;"><path d="M265,464.8071046600458C392.5,464.8071046600458,392.5,335.3781512605042,520,335.3781512605042" stroke="#f8e71c" stroke-width="1"/><title>3 → 12: 2</title></g><g style="mix-blend-mode: multiply;"><path d="M265,463.44728800611153C392.5,463.44728800611153,392.5,323.2391138273491,520,323.2391138273491" stroke="#f8e71c" stroke-width="2.0397249809014517"/><title>3 → 2: 6</title></g><g style="mix-blend-mode: multiply;"><path d="M265,496.5928189457601C392.5,496.5928189457601,392.5,505.9339190221543,520,505.9339190221543" stroke="#f8e71c" stroke-width="1"/><title>3 → 13 15 B: 1</title></g><g style="mix-blend-mode: multiply;"><path d="M265,459.70779220779224C392.5,459.70779220779224,392.5,300.32085561497325,520,300.32085561497325" stroke="#f8e71c" stroke-width="2.0397249809014517"/><title>3 → 10: 6</title></g><g style="mix-blend-mode: multiply;"><path d="M265,500.672268907563C392.5,500.672268907563,392.5,543.7528647822763,520,543.7528647822763" stroke="#f8e71c" stroke-width="1.6997708174178763"/><title>3 → B: 5</title></g><g style="mix-blend-mode: multiply;"><path d="M265,514.1004583651642C392.5,514.1004583651642,392.5,567.8609625668448,520,567.8609625668448" stroke="#f8e71c" stroke-width="1"/><title>3 → C D: 2</title></g><g style="mix-blend-mode: multiply;"><path d="M265,474.8357524828113C392.5,474.8357524828113,392.5,369.34491978609617,520,369.34491978609617" stroke="#f8e71c" stroke-width="1.6997708174178763"/><title>3 → 14: 5</title></g><g style="mix-blend-mode: multiply;"><path d="M265,494.5530939648586C392.5,494.5530939648586,392.5,455.7773109243698,520,455.7773109243698" stroke="#f8e71c" stroke-width="1"/><title>3 → 6: 1</title></g><g style="mix-blend-mode: multiply;"><path d="M265,496.93277310924367C392.5,496.93277310924367,392.5,511.27387318563785,520,511.27387318563785" stroke="#f8e71c" stroke-width="1"/><title>3 → 15 16: 1</title></g><g style="mix-blend-mode: multiply;"><path d="M265,495.23300229182576C392.5,495.23300229182576,392.5,494.57410236822,520,494.57410236822" stroke="#f8e71c" stroke-width="1.0198624904507259"/><title>3 → 9: 3</title></g><g style="mix-blend-mode: multiply;"><path d="M265,496.08288770053474C392.5,496.08288770053474,392.5,500.423987776929,520,500.423987776929" stroke="#f8e71c" stroke-width="1"/><title>3 → 13 15: 2</title></g><g style="mix-blend-mode: multiply;"><path d="M525,322.0492742551566C652.5,322.0492742551566,652.5,375.1088617265088,780,375.1088617265088" stroke="#cccccc" stroke-width="4.419404125286478"/><title>2 → yes: 13</title></g><g style="mix-blend-mode: multiply;"><path d="M525,310.59014514896865C652.5,310.59014514896865,652.5,368.64973262032083,780,368.64973262032083" stroke="#d62728" stroke-width="8.498854087089383"/><title>11 → yes: 25</title></g><g style="mix-blend-mode: multiply;"><path d="M525,135.98166539343012C652.5,135.98166539343012,652.5,200.98166539343015,780,200.98166539343015" stroke="#f8e71c" stroke-width="271.96333078686024"/><title> → no: 800</title></g><g style="mix-blend-mode: multiply;"><path d="M525,410.0114591291062C652.5,410.0114591291062,652.5,432.3911382734912,780,432.3911382734912" stroke="#cccccc" stroke-width="8.838808250572956"/><title>3 → yes: 26</title></g><g style="mix-blend-mode: multiply;"><path d="M525,296.41138273491214C652.5,296.41138273491214,652.5,359.4709702062643,780,359.4709702062643" stroke="#2ca02c" stroke-width="9.858670741023683"/><title>10 → yes: 29</title></g><g style="mix-blend-mode: multiply;"><path d="M525,576.7704354469059C652.5,576.7704354469059,652.5,511.7704354469061,780,511.7704354469061" stroke="#cccccc" stroke-width="6.45912910618793"/><title>D → yes: 19</title></g><g style="mix-blend-mode: multiply;"><path d="M525,424.7001527883881C652.5,424.7001527883881,652.5,442.0798319327731,780,442.0798319327731" stroke="#cccccc" stroke-width="10.538579067990833"/><title>4 → yes: 31</title></g><g style="mix-blend-mode: multiply;"><path d="M525,490.8346065699007C652.5,490.8346065699007,652.5,483.2142857142857,780,483.2142857142857" stroke="#cccccc" stroke-width="8.498854087089383"/><title>9 → yes: 25</title></g><g style="mix-blend-mode: multiply;"><path d="M525,452.5477463712758C652.5,452.5477463712758,652.5,459.92742551566084,780,459.92742551566084" stroke="#cccccc" stroke-width="6.799083269671505"/><title>6 → yes: 20</title></g><g style="mix-blend-mode: multiply;"><path d="M525,543.242933537051C652.5,543.242933537051,652.5,493.9228418640184,780,493.9228418640184" stroke="#cccccc" stroke-width="2.719633307868602"/><title>B → yes: 8</title></g><g style="mix-blend-mode: multiply;"><path d="M525,477.6757066462949C652.5,477.6757066462949,652.5,475.0553857906799,780,475.0553857906799" stroke="#cccccc" stroke-width="7.818945760122231"/><title>8 → yes: 23</title></g><g style="mix-blend-mode: multiply;"><path d="M525,533.483575248281C652.5,533.483575248281,652.5,338.3231474407946,780,338.3231474407946" stroke="#cccccc" stroke-width="1.359816653934301"/><title>A → no: 4</title></g><g style="mix-blend-mode: multiply;"><path d="M525,439.5588235294118C652.5,439.5588235294118,652.5,451.93850267379685,780,451.93850267379685" stroke="#cccccc" stroke-width="9.178762414056532"/><title>5 → yes: 27</title></g><g style="mix-blend-mode: multiply;"><path d="M525,464.85676088617265C652.5,464.85676088617265,652.5,467.2364400305577,780,467.2364400305577" stroke="#cccccc" stroke-width="7.818945760122231"/><title>7 → yes: 23</title></g><g style="mix-blend-mode: multiply;"><path d="M525,556.231856378915C652.5,556.231856378915,652.5,501.57181054239885,780,501.57181054239885" stroke="#cccccc" stroke-width="12.578304048892285"/><title>C → yes: 37</title></g><g style="mix-blend-mode: multiply;"><path d="M525,364.75553857906795C652.5,364.75553857906795,652.5,402.135217723453,780,402.135217723453" stroke="#bcbd22" stroke-width="10.878533231474409"/><title>14 → yes: 32</title></g><g style="mix-blend-mode: multiply;"><path d="M525,522.2937356760885C652.5,522.2937356760885,652.5,489.6734148204737,780,489.6734148204737" stroke="#cccccc" stroke-width="1"/><title>5 9 → yes: 1</title></g><g style="mix-blend-mode: multiply;"><path d="M525,347.34721161191743C652.5,347.34721161191743,652.5,390.0668449197861,780,390.0668449197861" stroke="#8c564b" stroke-width="13.258212375859435"/><title>13 → yes: 39</title></g><g style="mix-blend-mode: multiply;"><path d="M525,285.63216195569134C652.5,285.63216195569134,652.5,353.69174942704353,780,353.69174942704353" stroke="#ff7f0e" stroke-width="1.6997708174178763"/><title>1 → yes: 5</title></g><g style="mix-blend-mode: multiply;"><path d="M525,381.4839572192513C652.5,381.4839572192513,652.5,413.8636363636364,780,413.8636363636364" stroke="#17becf" stroke-width="12.578304048892285"/><title>15 → yes: 37</title></g><g style="mix-blend-mode: multiply;"><path d="M525,359.1462948815889C652.5,359.1462948815889,652.5,337.47326203208564,780,337.47326203208564" stroke="#bcbd22" stroke-width="1"/><title>14 → no: 1</title></g><g style="mix-blend-mode: multiply;"><path d="M525,275.87280366692136C652.5,275.87280366692136,652.5,348.9323911382735,780,348.9323911382735" stroke="#f8e71c" stroke-width="7.818945760122231"/><title> → yes: 23</title></g><g style="mix-blend-mode: multiply;"><path d="M525,535.3533231474407C652.5,535.3533231474407,652.5,491.3731856378916,780,491.3731856378916" stroke="#cccccc" stroke-width="2.379679144385027"/><title>A → yes: 7</title></g><g style="mix-blend-mode: multiply;"><path d="M525,516.7838044308631C652.5,516.7838044308631,652.5,489.16348357524834,780,489.16348357524834" stroke="#cccccc" stroke-width="1"/><title>5 7 → yes: 2</title></g><g style="mix-blend-mode: multiply;"><path d="M525,527.6336898395721C652.5,527.6336898395721,652.5,490.01336898395726,780,490.01336898395726" stroke="#cccccc" stroke-width="1"/><title>8 10 → yes: 1</title></g><g style="mix-blend-mode: multiply;"><path d="M525,332.6585179526356C652.5,332.6585179526356,652.5,380.3781512605042,780,380.3781512605042" stroke="#9467bd" stroke-width="6.119174942704355"/><title>12 → yes: 18</title></g><g style="mix-blend-mode: multiply;"><path d="M525,396.6825821237586C652.5,396.6825821237586,652.5,424.06226126814363,780,424.06226126814363" stroke="#cccccc" stroke-width="7.818945760122231"/><title>16 → yes: 23</title></g><g style="mix-blend-mode: multiply;"><path d="M525,329.42895339954157C652.5,329.42895339954157,652.5,337.13330786860206,780,337.13330786860206" stroke="#9467bd" stroke-width="1"/><title>12 → no: 1</title></g><g style="mix-blend-mode: multiply;"><path d="M525,573.3708938120702C652.5,573.3708938120702,652.5,339.85294117647067,780,339.85294117647067" stroke="#cccccc" stroke-width="1"/><title>D → no: 1</title></g><g style="mix-blend-mode: multiply;"><path d="M525,505.9339190221543C652.5,505.9339190221543,652.5,488.31359816653935,780,488.31359816653935" stroke="#7f7f7f" stroke-width="1"/><title>13 15 B → yes: 1</title></g><g style="mix-blend-mode: multiply;"><path d="M525,567.8609625668448C652.5,567.8609625668448,652.5,508.2009167303286,780,508.2009167303286" stroke="#cccccc" stroke-width="1"/><title>C D → yes: 2</title></g><g style="mix-blend-mode: multiply;"><path d="M525,541.713139801375C652.5,541.713139801375,652.5,339.1730328495035,780,339.1730328495035" stroke="#cccccc" stroke-width="1"/><title>B → no: 1</title></g><g style="mix-blend-mode: multiply;"><path d="M525,511.27387318563785C652.5,511.27387318563785,652.5,488.65355233002293,780,488.65355233002293" stroke="#cccccc" stroke-width="1"/><title>15 16 → yes: 1</title></g><g style="mix-blend-mode: multiply;"><path d="M525,500.423987776929C652.5,500.423987776929,652.5,487.803666921314,780,487.803666921314" stroke="#e377c2" stroke-width="1"/><title>13 15 → yes: 2</title></g><g style="mix-blend-mode: multiply;"><path d="M525,549.7727272727271C652.5,549.7727272727271,652.5,339.5129870129871,780,339.5129870129871" stroke="#cccccc" stroke-width="1"/><title>C → no: 1</title></g></g><g><text x="9" y="15.55958747135223" text-anchor="start"><tspan alignment-baseline="middle" x="9" style="font-family: Arial, sans-serif; font-size: 10px; fill: black; font-weight: bold;">0</tspan></text><text x="516" y="139.8911382734912" text-anchor="end"><tspan alignment-baseline="middle" x="516" style="font-family: Arial, sans-serif; font-size: 10px; fill: black; font-weight: bold;"/></text><text x="269" y="117.40259740259741" text-anchor="start"><tspan alignment-baseline="middle" x="269" style="font-family: Arial, sans-serif; font-size: 10px; fill: black; font-weight: bold;">1</tspan></text><text x="516" y="285.63216195569134" text-anchor="end"><tspan alignment-baseline="middle" x="516" style="font-family: Arial, sans-serif; font-size: 10px; fill: black; font-weight: bold;">1</tspan></text><text x="269" y="224.38884644767" text-anchor="start"><tspan alignment-baseline="middle" x="269" style="font-family: Arial, sans-serif; font-size: 10px; fill: black; font-weight: bold;">2</tspan></text><text x="516" y="296.4113827349121" text-anchor="end"><tspan alignment-baseline="middle" x="516" style="font-family: Arial, sans-serif; font-size: 10px; fill: black; font-weight: bold;">10</tspan></text><text x="516" y="310.59014514896865" text-anchor="end"><tspan alignment-baseline="middle" x="516" style="font-family: Arial, sans-serif; font-size: 10px; fill: black; font-weight: bold;">11</tspan></text><text x="516" y="322.04927425515655" text-anchor="end"><tspan alignment-baseline="middle" x="516" style="font-family: Arial, sans-serif; font-size: 10px; fill: black; font-weight: bold;">2</tspan></text><text x="269" y="396.98624904507255" text-anchor="start"><tspan alignment-baseline="middle" x="269" style="font-family: Arial, sans-serif; font-size: 10px; fill: black; font-weight: bold;">3</tspan></text><text x="516" y="332.48854087089376" text-anchor="end"><tspan alignment-baseline="middle" x="516" style="font-family: Arial, sans-serif; font-size: 10px; fill: black; font-weight: bold;">12</tspan></text><text x="516" y="347.34721161191743" text-anchor="end"><tspan alignment-baseline="middle" x="516" style="font-family: Arial, sans-serif; font-size: 10px; fill: black; font-weight: bold;">13</tspan></text><text x="516" y="364.5855614973261" text-anchor="end"><tspan alignment-baseline="middle" x="516" style="font-family: Arial, sans-serif; font-size: 10px; fill: black; font-weight: bold;">14</tspan></text><text x="516" y="381.48395721925135" text-anchor="end"><tspan alignment-baseline="middle" x="516" style="font-family: Arial, sans-serif; font-size: 10px; fill: black; font-weight: bold;">15</tspan></text><text x="516" y="396.6825821237586" text-anchor="end"><tspan alignment-baseline="middle" x="516" style="font-family: Arial, sans-serif; font-size: 10px; fill: black; font-weight: bold;">16</tspan></text><text x="516" y="410.01145912910624" text-anchor="end"><tspan alignment-baseline="middle" x="516" style="font-family: Arial, sans-serif; font-size: 10px; fill: black; font-weight: bold;">3</tspan></text><text x="516" y="424.7001527883881" text-anchor="end"><tspan alignment-baseline="middle" x="516" style="font-family: Arial, sans-serif; font-size: 10px; fill: black; font-weight: bold;">4</tspan></text><text x="516" y="439.5588235294118" text-anchor="end"><tspan alignment-baseline="middle" x="516" style="font-family: Arial, sans-serif; font-size: 10px; fill: black; font-weight: bold;">5</tspan></text><text x="516" y="452.5477463712758" text-anchor="end"><tspan alignment-baseline="middle" x="516" style="font-family: Arial, sans-serif; font-size: 10px; fill: black; font-weight: bold;">6</tspan></text><text x="516" y="464.85676088617265" text-anchor="end"><tspan alignment-baseline="middle" x="516" style="font-family: Arial, sans-serif; font-size: 10px; fill: black; font-weight: bold;">7</tspan></text><text x="516" y="477.6757066462949" text-anchor="end"><tspan alignment-baseline="middle" x="516" style="font-family: Arial, sans-serif; font-size: 10px; fill: black; font-weight: bold;">8</tspan></text><text x="516" y="490.8346065699007" text-anchor="end"><tspan alignment-baseline="middle" x="516" style="font-family: Arial, sans-serif; font-size: 10px; fill: black; font-weight: bold;">9</tspan></text><text x="9" y="122.88579067990835" text-anchor="start"><tspan alignment-baseline="middle" x="9" style="font-family: Arial, sans-serif; font-size: 10px; fill: black; font-weight: bold;">10</tspan></text><text x="9" y="250.2692895339954" text-anchor="start"><tspan alignment-baseline="middle" x="9" style="font-family: Arial, sans-serif; font-size: 10px; fill: black; font-weight: bold;">20</tspan></text><text x="9" y="310.85179526355995" text-anchor="start"><tspan alignment-baseline="middle" x="9" style="font-family: Arial, sans-serif; font-size: 10px; fill: black; font-weight: bold;">30</tspan></text><text x="9" y="355.11650114591293" text-anchor="start"><tspan alignment-baseline="middle" x="9" style="font-family: Arial, sans-serif; font-size: 10px; fill: black; font-weight: bold;">40</tspan></text><text x="9" y="374.05462184873954" text-anchor="start"><tspan alignment-baseline="middle" x="9" style="font-family: Arial, sans-serif; font-size: 10px; fill: black; font-weight: bold;">50</tspan></text><text x="9" y="392.6527883880825" text-anchor="start"><tspan alignment-baseline="middle" x="9" style="font-family: Arial, sans-serif; font-size: 10px; fill: black; font-weight: bold;">60</tspan></text><text x="9" y="409.38120702826586" text-anchor="start"><tspan alignment-baseline="middle" x="9" style="font-family: Arial, sans-serif; font-size: 10px; fill: black; font-weight: bold;">70</tspan></text><text x="9" y="427.2994652406418" text-anchor="start"><tspan alignment-baseline="middle" x="9" style="font-family: Arial, sans-serif; font-size: 10px; fill: black; font-weight: bold;">80</tspan></text><text x="9" y="442.6680672268908" text-anchor="start"><tspan alignment-baseline="middle" x="9" style="font-family: Arial, sans-serif; font-size: 10px; fill: black; font-weight: bold;">90</tspan></text><text x="9" y="452.5974025974026" text-anchor="start"><tspan alignment-baseline="middle" x="9" style="font-family: Arial, sans-serif; font-size: 10px; fill: black; font-weight: bold;">110</tspan></text><text x="9" y="460.48701298701303" text-anchor="start"><tspan alignment-baseline="middle" x="9" style="font-family: Arial, sans-serif; font-size: 10px; fill: black; font-weight: bold;">120</tspan></text><text x="9" y="467.35676088617265" text-anchor="start"><tspan alignment-baseline="middle" x="9" style="font-family: Arial, sans-serif; font-size: 10px; fill: black; font-weight: bold;">130</tspan></text><text x="9" y="474.5664629488159" text-anchor="start"><tspan alignment-baseline="middle" x="9" style="font-family: Arial, sans-serif; font-size: 10px; fill: black; font-weight: bold;">140</tspan></text><text x="9" y="482.62605042016804" text-anchor="start"><tspan alignment-baseline="middle" x="9" style="font-family: Arial, sans-serif; font-size: 10px; fill: black; font-weight: bold;">150</tspan></text><text x="9" y="490.34568372803665" text-anchor="start"><tspan alignment-baseline="middle" x="9" style="font-family: Arial, sans-serif; font-size: 10px; fill: black; font-weight: bold;">160</tspan></text><text x="9" y="497.5553857906799" text-anchor="start"><tspan alignment-baseline="middle" x="9" style="font-family: Arial, sans-serif; font-size: 10px; fill: black; font-weight: bold;">210</tspan></text><text x="9" y="504.76508785332317" text-anchor="start"><tspan alignment-baseline="middle" x="9" style="font-family: Arial, sans-serif; font-size: 10px; fill: black; font-weight: bold;">220</tspan></text><text x="9" y="511.2948815889993" text-anchor="start"><tspan alignment-baseline="middle" x="9" style="font-family: Arial, sans-serif; font-size: 10px; fill: black; font-weight: bold;">230</tspan></text><text x="9" y="517.6546982429337" text-anchor="start"><tspan alignment-baseline="middle" x="9" style="font-family: Arial, sans-serif; font-size: 10px; fill: black; font-weight: bold;">250</tspan></text><text x="9" y="525.3743315508024" text-anchor="start"><tspan alignment-baseline="middle" x="9" style="font-family: Arial, sans-serif; font-size: 10px; fill: black; font-weight: bold;">260</tspan></text><text x="9" y="533.2639419404128" text-anchor="start"><tspan alignment-baseline="middle" x="9" style="font-family: Arial, sans-serif; font-size: 10px; fill: black; font-weight: bold;">510</tspan></text><text x="9" y="553.2219251336901" text-anchor="start"><tspan alignment-baseline="middle" x="9" style="font-family: Arial, sans-serif; font-size: 10px; fill: black; font-weight: bold;"/></text><text x="516" y="500.423987776929" text-anchor="end"><tspan alignment-baseline="middle" x="516" style="font-family: Arial, sans-serif; font-size: 10px; fill: black; font-weight: bold;">13 15</tspan></text><text x="516" y="505.9339190221543" text-anchor="end"><tspan alignment-baseline="middle" x="516" style="font-family: Arial, sans-serif; font-size: 10px; fill: black; font-weight: bold;">13 15 B</tspan></text><text x="516" y="511.27387318563785" text-anchor="end"><tspan alignment-baseline="middle" x="516" style="font-family: Arial, sans-serif; font-size: 10px; fill: black; font-weight: bold;">15 16</tspan></text><text x="516" y="516.7838044308633" text-anchor="end"><tspan alignment-baseline="middle" x="516" style="font-family: Arial, sans-serif; font-size: 10px; fill: black; font-weight: bold;">5 7</tspan></text><text x="516" y="522.2937356760885" text-anchor="end"><tspan alignment-baseline="middle" x="516" style="font-family: Arial, sans-serif; font-size: 10px; fill: black; font-weight: bold;">5 9</tspan></text><text x="516" y="527.6336898395721" text-anchor="end"><tspan alignment-baseline="middle" x="516" style="font-family: Arial, sans-serif; font-size: 10px; fill: black; font-weight: bold;">8 10</tspan></text><text x="516" y="534.6734148204735" text-anchor="end"><tspan alignment-baseline="middle" x="516" style="font-family: Arial, sans-serif; font-size: 10px; fill: black; font-weight: bold;">A</tspan></text><text x="516" y="543.0729564553093" text-anchor="end"><tspan alignment-baseline="middle" x="516" style="font-family: Arial, sans-serif; font-size: 10px; fill: black; font-weight: bold;">B</tspan></text><text x="516" y="556.0618792971734" text-anchor="end"><tspan alignment-baseline="middle" x="516" style="font-family: Arial, sans-serif; font-size: 10px; fill: black; font-weight: bold;">C</tspan></text><text x="516" y="567.8609625668448" text-anchor="end"><tspan alignment-baseline="middle" x="516" style="font-family: Arial, sans-serif; font-size: 10px; fill: black; font-weight: bold;">C D</tspan></text><text x="516" y="576.6004583651643" text-anchor="end"><tspan alignment-baseline="middle" x="516" style="font-family: Arial, sans-serif; font-size: 10px; fill: black; font-weight: bold;">D</tspan></text><text x="776" y="202.5114591291062" text-anchor="end"><tspan alignment-baseline="middle" x="776" style="font-family: Arial, sans-serif; font-size: 10px; fill: black; font-weight: bold;">no</tspan></text><text x="776" y="430.0114591291062" text-anchor="end"><tspan alignment-baseline="middle" x="776" style="font-family: Arial, sans-serif; font-size: 10px; fill: black; font-weight: bold;">yes</tspan></text></g><g><text x="2.5" y="8.500000000000057" text-anchor="middle" style="font-family: Arial, sans-serif; font-size: 12px; fill: rgb(123, 123, 123); font-weight: bold;">Fare group</text><text x="522.5" y="-4" text-anchor="middle" style="font-family: Arial, sans-serif; font-size: 12px; fill: rgb(123, 123, 123); font-weight: bold;">Boat</text><text x="262.5" y="58.5" text-anchor="middle" style="font-family: Arial, sans-serif; font-size: 12px; fill: rgb(123, 123, 123); font-weight: bold;">Class</text><text x="782.5" y="61.00000000000003" text-anchor="middle" style="font-family: Arial, sans-serif; font-size: 12px; fill: rgb(123, 123, 123); font-weight: bold;">Survival</text></g></g></svg>